<svg width="1040" height="400" viewBox="0 0 1040 400" fill="none" xmlns="http://www.w3.org/2000/svg">
<path d="M240 0H0V80H240V0Z" fill="#333333"/>
<path d="M160 160H80V400H160V160Z" fill="#333333"/>
<path d="M640 400V0H720V160H800V240H720V400H640Z" fill="#333333"/>
<path d="M880 160H800V80H880V160Z" fill="#333333"/>
<path d="M880 160H960V0H1040V400H960V240H880V160Z" fill="#333333"/>
<path d="M880 320H800V400H880V320Z" fill="#333333"/>
<path d="M320 0V80H480V240H560V0H320Z" fill="#333333"/>
<path d="M480 320H560V400H480V320Z" fill="#333333"/>
<path d="M320 160V400H400V160H320Z" fill="#333333"/>
</svg>
